<svg width="318" height="160" viewBox="0 0 318 160" fill="none" xmlns="http://www.w3.org/2000/svg">
<g clip-path="url(#clip0_136_12087)">
<rect x="0.333344" width="317.333" height="160" rx="12" fill="#4600F2" fill-opacity="0.06"/>
<g clip-path="url(#clip1_136_12087)">
<path d="M151.872 118.962V180.669H195.249V118.962C195.251 118.051 194.656 117.245 193.782 116.976C193.582 116.91 193.372 116.878 193.16 116.88H153.967C152.813 116.878 151.875 117.809 151.872 118.96V118.962ZM168.801 140.165C168.824 137.616 170.916 135.569 173.474 135.592C175.998 135.615 178.038 137.649 178.062 140.165V147.325C178.049 149.873 175.967 151.93 173.409 151.918C170.869 151.906 168.813 149.856 168.801 147.325V140.165Z" fill="#F2F2F2"/>
<path d="M83.6342 25.9911V138.66C83.6365 141.65 86.0678 144.073 89.0676 144.076H256.598C259.598 144.073 262.029 141.65 262.032 138.66V25.9911C262.025 23.0044 259.595 20.5858 256.598 20.582H89.0676C86.0707 20.5858 83.6413 23.0044 83.6342 25.9911Z" fill="#E6E6E6"/>
<path d="M255.201 24.4929H90.4655C88.8608 24.4963 87.5618 25.7937 87.5616 27.3929V137.271C87.5644 138.868 88.8629 140.162 90.4655 140.165H255.201C256.804 140.162 258.102 138.868 258.105 137.271V27.3929C258.105 25.7937 256.806 24.4963 255.201 24.4929ZM213.646 102.556C213.153 103.526 212.155 104.136 211.065 104.133L211.047 104.132C209.468 103.913 207.883 103.768 206.292 103.698C206.539 103.874 206.756 104.089 206.936 104.333C207.398 104.992 207.54 105.823 207.323 106.597C206.963 107.993 206.98 109.5 207.375 111.204C207.519 111.801 207.447 112.428 207.173 112.977C206.68 113.947 205.682 114.557 204.592 114.554L204.574 114.553C200.803 114.029 196.984 113.928 193.19 114.251C193.175 114.346 193.157 114.442 193.132 114.537C192.772 115.933 192.789 117.44 193.184 119.144C193.328 119.74 193.256 120.368 192.982 120.917C192.49 121.886 191.491 122.497 190.401 122.494L190.383 122.493C186.51 121.955 182.588 121.863 178.693 122.218C178.664 123.188 178.765 124.157 178.994 125.099C179.137 125.695 179.065 126.323 178.791 126.872C178.299 127.841 177.3 128.451 176.21 128.449L176.193 128.448C171.518 127.799 166.776 127.799 162.101 128.448H162.093C161.625 128.449 161.164 128.338 160.748 128.124C159.562 127.482 159.025 126.072 159.485 124.807C159.627 124.409 159.732 123.999 159.799 123.582C155.515 123.09 151.186 123.141 146.914 123.733H146.907C146.439 123.735 145.977 123.624 145.562 123.41C144.375 122.768 143.838 121.358 144.299 120.093C144.804 118.792 144.825 117.354 144.357 116.039C144.137 115.422 144.137 114.749 144.357 114.132C141.137 113.969 137.909 114.11 134.715 114.553H134.708C134.24 114.555 133.778 114.444 133.362 114.229C132.176 113.587 131.639 112.177 132.1 110.913C132.605 109.612 132.625 108.173 132.158 106.858C131.859 106.023 131.969 105.097 132.454 104.353C132.906 103.651 133.665 103.204 134.5 103.147C134.565 103.143 134.631 103.141 134.698 103.141C136.334 103.426 137.986 103.612 139.645 103.698C138.586 103.004 138.143 101.679 138.573 100.491C139.078 99.1905 139.098 97.7522 138.631 96.4374C138.332 95.602 138.442 94.6756 138.927 93.9323C138.948 93.9003 138.973 93.8718 138.995 93.841C137.815 93.9221 136.637 94.0441 135.462 94.2071H135.455C134.986 94.2088 134.525 94.0979 134.109 93.8836C132.923 93.2415 132.386 91.8314 132.846 90.5667C133.352 89.2657 133.372 87.8274 132.905 86.5125C132.606 85.6772 132.716 84.7507 133.201 84.0075C133.653 83.3055 134.412 82.8582 135.247 82.8014C135.312 82.797 135.378 82.7947 135.445 82.7947C137.412 83.138 139.402 83.3376 141.398 83.3921C140.889 82.6605 140.764 81.7293 141.062 80.89C141.567 79.589 141.588 78.1507 141.121 76.8358C140.822 76.0005 140.932 75.074 141.417 74.3308C141.869 73.6289 142.627 73.1815 143.462 73.1247C143.528 73.1203 143.594 73.118 143.661 73.118C145.325 73.4082 147.007 73.5958 148.695 73.6797C148.332 72.9954 148.273 72.1912 148.531 71.4614C149.036 70.1604 149.057 68.7221 148.589 67.4073C148.291 66.5719 148.4 65.6455 148.886 64.9022C149.338 64.2003 150.096 63.753 150.931 63.6961C150.997 63.6918 151.063 63.6895 151.129 63.6895C153.088 64.0312 155.07 64.2306 157.058 64.2859C156.787 63.6487 156.765 62.9336 156.996 62.2809C157.501 60.98 157.522 59.5417 157.054 58.2268C156.756 57.3914 156.865 56.465 157.351 55.7217C157.802 55.0198 158.561 54.5725 159.396 54.5157C159.462 54.5113 159.527 54.509 159.594 54.509C164.26 55.3274 169.033 55.3281 173.699 54.5108H173.705C174.065 54.5848 174.436 54.5848 174.796 54.5108H174.802C179.468 55.3281 184.241 55.3274 188.907 54.509C188.974 54.509 189.039 54.5113 189.105 54.5157C189.94 54.5725 190.699 55.0198 191.151 55.7217C191.636 56.465 191.745 57.3914 191.447 58.2268C190.979 59.5417 191 60.98 191.505 62.2809C191.736 62.9336 191.714 63.6487 191.443 64.2859C193.431 64.2306 195.413 64.0312 197.372 63.6895C197.438 63.6895 197.504 63.6918 197.57 63.6961C198.405 63.753 199.163 64.2003 199.615 64.9022C200.101 65.6455 200.21 66.5719 199.912 67.4073C199.444 68.7221 199.465 70.1604 199.97 71.4614C200.228 72.1912 200.169 72.9954 199.806 73.6797C201.494 73.5958 203.176 73.4082 204.84 73.118C204.907 73.118 204.973 73.1203 205.039 73.1247C205.874 73.1815 206.632 73.6289 207.084 74.3308C207.569 75.074 207.679 76.0005 207.38 76.8358C206.913 78.1507 206.934 79.589 207.439 80.89C207.738 81.7315 207.611 82.6651 207.099 83.3974C207.321 83.5646 207.518 83.7632 207.683 83.987C208.145 84.6463 208.287 85.4768 208.07 86.2512C207.71 87.6469 207.727 89.1539 208.122 90.8584C208.266 91.4547 208.194 92.0823 207.92 92.6312C207.819 92.8266 207.697 93.0101 207.556 93.1782C208.721 93.0761 209.884 92.9238 211.043 92.7214H211.049C211.982 92.7181 212.859 93.1608 213.409 93.9118C213.871 94.5711 214.013 95.4016 213.796 96.176C213.436 97.5717 213.453 99.0787 213.848 100.783C213.992 101.38 213.92 102.007 213.646 102.556Z" fill="white"/>
<path d="M249.857 39.6291H95.7151C95.3766 39.6217 95.1082 39.3421 95.1156 39.0047C95.1229 38.6778 95.3871 38.4145 95.7151 38.4073H249.857C250.196 38.4147 250.464 38.6943 250.457 39.0317C250.45 39.3586 250.185 39.6219 249.857 39.6291Z" fill="#E6E6E6"/>
<path d="M174.649 125.522L174.631 125.521C169.957 124.872 165.214 124.872 160.54 125.521H160.532C160.064 125.523 159.603 125.412 159.187 125.197C158.001 124.555 157.464 123.145 157.924 121.881C158.429 120.58 158.45 119.141 157.982 117.826C157.684 116.991 157.793 116.065 158.279 115.321C158.731 114.619 159.489 114.172 160.324 114.115C160.39 114.111 160.456 114.109 160.522 114.109C165.188 114.927 169.961 114.928 174.627 114.11H174.633C175.566 114.107 176.443 114.55 176.993 115.301C177.455 115.96 177.597 116.791 177.38 117.565C177.02 118.961 177.037 120.468 177.432 122.172C177.576 122.769 177.504 123.396 177.23 123.945C176.737 124.915 175.739 125.525 174.649 125.522Z" fill="#4600F2"/>
<path d="M189.025 101.195L185.264 98.093C182.444 99.5662 178.152 105.448 178.152 105.448L168.253 112.544C167.064 112.6 166.146 113.606 166.203 114.791C166.259 115.976 167.269 116.891 168.458 116.834C169.229 116.798 169.922 116.352 170.274 115.667L183.725 108.583L189.025 101.195Z" fill="#FFB8B8"/>
<path d="M195.369 89.39C197.54 91.222 197.809 94.4608 195.971 96.6241C195.765 96.8665 195.537 97.0893 195.29 97.2897L192.898 99.2272C192.898 99.2272 186.933 107.786 183.828 108.779L175.856 112.929L172.262 109.337L179.486 103.47C179.486 103.47 182.809 100.337 183.142 98.0443C183.346 96.64 185.73 92.8148 188.121 89.9777C189.955 87.8208 193.197 87.5546 195.361 89.383L195.369 89.39Z" fill="#3F3D56"/>
<path d="M213.529 164.453L211.92 167.435L199.612 162.669L201.986 158.267L213.529 164.453Z" fill="#FFB6B6"/>
<path d="M181.217 122.463L178.218 146.372L179.718 154.387L206.706 166.171L208.206 161.315C201.307 157.107 193.932 150.74 189.286 150.272C189.286 150.272 188.9 146.029 192.229 143.411C192.901 142.883 192.754 142.168 193.026 141.52C193.212 141.074 193.955 140.61 194.146 140.153C194.392 139.561 194.087 138.972 194.335 138.37C194.474 138.032 195.003 138.011 195.141 137.672C195.378 137.094 195.223 136.2 195.453 135.629C195.945 134.409 196.419 133.216 196.851 132.098C198.195 128.618 199.142 125.86 199.022 125.265C198.647 123.397 181.217 122.463 181.217 122.463Z" fill="#2F2E41"/>
<path d="M180.7 146.303L179.132 156.399L183.091 177.005H188.339C190.224 170.081 190.322 160.982 188.526 153.283L180.7 146.303Z" fill="#2F2E41"/>
<path d="M184.072 93.2512L186.491 89.05L189.089 86.9733L193.962 86.2262L195.316 87.2637C200.188 94.685 202.005 103.691 200.389 112.413L200.009 114.466L199.767 115.769L199.872 117.326L199.059 119.594L199.17 121.254L199.23 122.141L199.29 123.031L199.374 124.274C199.524 124.983 198.769 124.889 198.876 125.514C199.063 126.612 199.904 128.238 198.627 128.244L185.432 125.514C182.08 125.528 178.959 121.544 182.196 118.319L184.072 93.2512Z" fill="#3F3D56"/>
<path d="M190.249 85.0557C193.787 85.0557 196.656 82.1967 196.656 78.6699C196.656 75.1432 193.787 72.2842 190.249 72.2842C186.71 72.2842 183.841 75.1432 183.841 78.6699C183.841 82.1967 186.71 85.0557 190.249 85.0557Z" fill="#FFB8B8"/>
<path d="M190.357 84.8743C191.295 84.8889 192.232 84.8236 193.158 84.6792C194.076 84.4931 196.13 82.9929 196.703 82.0901C197.129 81.4194 197.401 80.3719 197.554 79.6114C197.972 77.5762 197.504 75.4599 196.267 73.788C196.031 73.4422 195.707 73.1661 195.327 72.989C195.294 72.9759 195.259 72.9643 195.224 72.9544C194.671 72.8093 194.174 72.5028 193.797 72.0742C193.724 71.9875 193.644 71.9062 193.56 71.8308C193.133 71.4724 192.628 71.2195 192.085 71.093C191.209 70.8592 189.94 71.0913 188.315 71.7834C187.498 72.1312 186.605 72.0053 185.919 71.8568C185.84 71.8417 185.76 71.8692 185.707 71.9291C185.415 72.2025 185.029 72.3556 184.629 72.3575C184.383 72.3682 184.125 72.707 183.814 73.1489C183.743 73.2492 183.661 73.3662 183.601 73.4374L183.594 73.3006L183.455 73.4532C182.74 74.2381 182.799 75.4517 183.587 76.1638C183.799 76.3552 184.05 76.4972 184.324 76.5796C184.571 76.6451 184.824 76.6852 185.079 76.6995C185.234 76.7134 185.394 76.7277 185.547 76.7542C186.547 76.9583 187.366 77.6712 187.704 78.6316C187.845 79.0249 188.28 79.2295 188.675 79.0885C188.737 79.0663 188.796 79.0362 188.85 78.9989C189.174 78.7475 189.601 78.67 189.993 78.7915C190.16 78.884 190.29 79.0309 190.361 79.2076C190.447 79.4044 190.591 79.5711 190.773 79.6863C191.395 80.0061 191.438 81.4225 191.214 82.6033C190.999 83.7414 190.573 84.5648 190.179 84.6055C189.875 84.6368 189.84 84.6583 189.818 84.7118L189.799 84.7596L189.833 84.8044C190.001 84.865 190.179 84.8888 190.357 84.8743Z" fill="#2F2E41"/>
<path d="M177.387 81.1085L177.37 81.1073C172.695 80.4581 167.953 80.4581 163.278 81.1073H163.271C162.803 81.109 162.341 80.9981 161.926 80.7838C160.739 80.1417 160.202 78.7316 160.663 77.4669C161.168 76.1659 161.189 74.7276 160.721 73.4128C160.423 72.5774 160.532 71.651 161.017 70.9077C161.469 70.2058 162.228 69.7584 163.063 69.7016C163.129 69.6972 163.194 69.6949 163.261 69.6949C167.927 70.5134 172.7 70.514 177.366 69.6968H177.372C178.304 69.6935 179.182 70.1362 179.732 70.8872C180.193 71.5465 180.335 72.377 180.119 73.1514C179.759 74.5471 179.776 76.0541 180.171 77.7586C180.314 78.3549 180.243 78.9825 179.968 79.5314C179.476 80.5009 178.478 81.1111 177.387 81.1085Z" fill="#4600F2"/>
<path d="M183.379 96.1485L186.031 92.0638C184.233 89.4445 177.871 85.8844 177.871 85.8844L169.642 76.915C169.447 75.7448 168.337 74.9539 167.163 75.1484C165.989 75.3429 165.195 76.4492 165.391 77.6194C165.517 78.3788 166.042 79.0125 166.766 79.2806L175.397 91.7663L183.379 96.1485Z" fill="#FFB8B8"/>
<path d="M195.884 101.049C194.312 103.412 191.116 104.057 188.746 102.49C188.48 102.314 188.231 102.115 188.003 101.893L185.792 99.7526C185.792 99.7526 176.527 94.9311 175.175 91.9738L169.104 83.3921L173.175 79.7325L180.25 86.1424C180.25 86.1424 183.507 89.8965 185.831 89.9579C187.254 89.9954 191.345 91.9088 194.451 93.9431C196.815 95.5069 197.459 98.6843 195.89 101.04L195.884 101.049Z" fill="#3F3D56"/>
<path d="M119.23 33.9577C120.392 33.9577 121.335 32.9973 121.335 31.8127C121.335 30.628 120.392 29.6677 119.23 29.6677C118.067 29.6677 117.124 30.628 117.124 31.8127C117.124 32.9973 118.067 33.9577 119.23 33.9577Z" fill="#3F3D56"/>
<path d="M126.503 33.9578C127.665 33.9578 128.608 32.9974 128.608 31.8127C128.608 30.6281 127.665 29.6677 126.503 29.6677C125.34 29.6677 124.397 30.6281 124.397 31.8127C124.397 32.9974 125.34 33.9578 126.503 33.9578Z" fill="#3F3D56"/>
<path d="M133.776 33.9578C134.938 33.9578 135.881 32.9974 135.881 31.8127C135.881 30.6281 134.938 29.6677 133.776 29.6677C132.613 29.6677 131.67 30.6281 131.67 31.8127C131.67 32.9974 132.613 33.9578 133.776 33.9578Z" fill="#3F3D56"/>
<path d="M142.069 33.5081C142.004 33.5081 141.94 33.4831 141.891 33.4334L140.47 31.9861C140.376 31.8897 140.376 31.7356 140.47 31.6392L141.891 30.192C141.987 30.0941 142.145 30.0925 142.243 30.1881C142.341 30.284 142.343 30.4411 142.247 30.539L140.996 31.8127L142.247 33.0865C142.343 33.1843 142.341 33.3415 142.243 33.4373C142.194 33.4846 142.132 33.5081 142.069 33.5081Z" fill="#3F3D56"/>
<path d="M144.456 33.5081C144.393 33.5081 144.33 33.4846 144.282 33.4374C144.184 33.3415 144.182 33.1845 144.278 33.0865L145.528 31.8127L144.278 30.539C144.182 30.4412 144.184 30.284 144.282 30.1882C144.38 30.0922 144.538 30.0941 144.634 30.1921L146.055 31.6392C146.149 31.7357 146.149 31.8898 146.055 31.9862L144.634 33.4335C144.585 33.4832 144.521 33.5081 144.456 33.5081Z" fill="#3F3D56"/>
<path d="M218.774 29.9161H216.132C215.831 29.9161 215.587 30.1593 215.587 30.4595V33.0946C215.587 33.3948 215.831 33.6379 216.132 33.6379H218.774C219.075 33.6379 219.321 33.3948 219.321 33.0946V30.4595C219.321 30.1593 219.075 29.9161 218.774 29.9161Z" fill="#3F3D56"/>
<path d="M212.301 29.9161H209.659C209.358 29.9161 209.114 30.1593 209.114 30.4595V33.0946C209.114 33.3948 209.358 33.6379 209.659 33.6379H212.301C212.602 33.6379 212.848 33.3948 212.848 33.0946V30.4595C212.848 30.1593 212.602 29.9161 212.301 29.9161Z" fill="#3F3D56"/>
<path d="M224.873 30.0401H222.232C221.93 30.0401 221.686 30.2833 221.686 30.5835V33.2185C221.686 33.5188 221.93 33.7619 222.232 33.7619H224.873C225.174 33.7619 225.421 33.5188 225.421 33.2185V30.5835C225.421 30.2833 225.174 30.0401 224.873 30.0401Z" fill="#3F3D56"/>
<path d="M185.059 31.0425H163.945C163.576 31.0425 163.28 31.3403 163.28 31.705C163.28 32.0698 163.576 32.3675 163.945 32.3675H185.059C185.425 32.3675 185.724 32.0698 185.724 31.705C185.724 31.3403 185.425 31.0425 185.059 31.0425Z" fill="#3F3D56"/>
</g>
</g>
<defs>
<clipPath id="clip0_136_12087">
<rect x="0.333344" width="317.333" height="160" rx="12" fill="white"/>
</clipPath>
<clipPath id="clip1_136_12087">
<rect width="187" height="166" fill="white" transform="translate(79.3333 20.582)"/>
</clipPath>
</defs>
</svg>
